TITLE ""
FILE "Step2_Track51.mp3" MP3
  TRACK 01 AUDIO
    TITLE "Step2_Track51_01"
    INDEX 01 00:00:00
  TRACK 02 AUDIO
    TITLE "Step2_Track51_02"
    INDEX 01 00:00:24
  TRACK 03 AUDIO
    TITLE "Step2_Track51_03"
    INDEX 01 00:02:01
  TRACK 04 AUDIO
    TITLE "Step2_Track51_04"
    INDEX 01 00:02:60
  TRACK 05 AUDIO
    TITLE "Step2_Track51_05"
    INDEX 01 00:03:60
  TRACK 06 AUDIO
    TITLE "Step2_Track51_06"
    INDEX 01 00:04:04
  TRACK 07 AUDIO
    TITLE "Step2_Track51_07"
    INDEX 01 00:06:38
  TRACK 08 AUDIO
    TITLE "Step2_Track51_08"
    INDEX 01 00:06:66
  TRACK 09 AUDIO
    TITLE "Step2_Track51_09"
    INDEX 01 00:07:65
  TRACK 10 AUDIO
    TITLE "Step2_Track51_10"
    INDEX 01 00:07:71
  TRACK 11 AUDIO
    TITLE "Step2_Track51_11"
    INDEX 01 00:10:19
  TRACK 12 AUDIO
    TITLE "Step2_Track51_12"
    INDEX 01 00:10:54
  TRACK 13 AUDIO
    TITLE "Step2_Track51_13"
    INDEX 01 00:11:57
  TRACK 14 AUDIO
    TITLE "Step2_Track51_14"
    INDEX 01 00:11:63
  TRACK 15 AUDIO
    TITLE "Step2_Track51_15"
    INDEX 01 00:13:58
  TRACK 16 AUDIO
    TITLE "Step2_Track51_16"
    INDEX 01 00:14:24
  TRACK 17 AUDIO
    TITLE "Step2_Track51_17"
    INDEX 01 00:15:24
  TRACK 18 AUDIO
    TITLE "Step2_Track51_18"
    INDEX 01 00:15:26
  TRACK 19 AUDIO
    TITLE "Step2_Track51_19"
    INDEX 01 00:17:26
  TRACK 20 AUDIO
    TITLE "Step2_Track51_20"
    INDEX 01 00:17:70
  TRACK 21 AUDIO
    TITLE "Step2_Track51_21"
    INDEX 01 00:18:61
  TRACK 22 AUDIO
    TITLE "Step2_Track51_22"
    INDEX 01 00:19:15
  TRACK 23 AUDIO
    TITLE "Step2_Track51_23"
    INDEX 01 00:21:38
  TRACK 24 AUDIO
    TITLE "Step2_Track51_24"
    INDEX 01 00:21:58
  TRACK 25 AUDIO
    TITLE "Step2_Track51_25"
    INDEX 01 00:22:63
  TRACK 26 AUDIO
    TITLE "Step2_Track51_26"
    INDEX 01 00:23:11
  TRACK 27 AUDIO
    TITLE "Step2_Track51_27"
    INDEX 01 00:25:16
  TRACK 28 AUDIO
    TITLE "Step2_Track51_28"
    INDEX 01 00:25:42
  TRACK 29 AUDIO
    TITLE "Step2_Track51_29"
    INDEX 01 00:26:43
  TRACK 30 AUDIO
    TITLE "Step2_Track51_30"
    INDEX 01 00:26:45
  TRACK 31 AUDIO
    TITLE "Step2_Track51_31"
    INDEX 01 00:29:06
  TRACK 32 AUDIO
    TITLE "Step2_Track51_32"
    INDEX 01 00:29:47
  TRACK 33 AUDIO
    TITLE "Step2_Track51_33"
    INDEX 01 00:30:25
  TRACK 34 AUDIO
    TITLE "Step2_Track51_34"
    INDEX 01 00:30:54
  TRACK 35 AUDIO
    TITLE "Step2_Track51_35"
    INDEX 01 00:32:61
  TRACK 36 AUDIO
    TITLE "Step2_Track51_36"
    INDEX 01 00:33:23
  TRACK 37 AUDIO
    TITLE "Step2_Track51_37"
    INDEX 01 00:34:29
  TRACK 38 AUDIO
    TITLE "Step2_Track51_38"
    INDEX 01 00:34:43
  TRACK 39 AUDIO
    TITLE "Step2_Track51_39"
    INDEX 01 00:36:67
  TRACK 40 AUDIO
    TITLE "Step2_Track51_40"
    INDEX 01 00:37:25
  TRACK 41 AUDIO
    TITLE "Step2_Track51_41"
    INDEX 01 00:38:25
  TRACK 42 AUDIO
    TITLE "Step2_Track51_42"
    INDEX 01 00:38:46
  TRACK 43 AUDIO
    TITLE "Step2_Track51_43"
    INDEX 01 00:41:27
